<svg preserveAspectRatio="none" overflow="visible" style="display: block;" width="18.125" height="16.25" viewBox="0 0 18.125 16.25" fill="none" xmlns="http://www.w3.org/2000/svg">
<path id="Symbol" d="M10.8984 0.0585938C10.8594 0.0455729 10.8171 0.0325521 10.7715 0.0195312C10.7259 0.00651042 10.6771 0 10.625 0C10.5469 0 10.4753 0.0130208 10.4102 0.0390625C10.3451 0.0651042 10.2865 0.0976562 10.2344 0.136719V0.136719L4.78516 4.375H1.25C0.898438 4.375 0.602214 4.49544 0.361328 4.73633C0.120443 4.97721 0 5.27344 0 5.625V5.625V10.625C0 10.9766 0.120443 11.2728 0.361328 11.5137C0.602214 11.7546 0.898438 11.875 1.25 11.875V11.875H4.78516L10.2344 16.1133C10.2865 16.1523 10.3451 16.1849 10.4102 16.2109C10.4753 16.237 10.5469 16.25 10.625 16.25C10.7943 16.25 10.9408 16.1882 11.0645 16.0645C11.1882 15.9408 11.25 15.7943 11.25 15.625V0.625V0.625V0.625C11.25 0.507812 11.2174 0.397135 11.1523 0.292969C11.0872 0.188802 11.0026 0.110677 10.8984 0.0585938V0.0585938V0.0585938V0.0585938M1.25 5.625H4.375V10.625H1.25V5.625V5.625M10 14.3555L5.625 10.9375V5.3125L10 1.89453V14.3555V14.3555M14.2188 6.05469C14.4661 6.32812 14.6582 6.64388 14.7949 7.00195C14.9316 7.36003 15 7.73438 15 8.125C15 8.51562 14.9316 8.88997 14.7949 9.24805C14.6582 9.60612 14.4661 9.92188 14.2188 10.1953V10.1953C14.1667 10.2604 14.0983 10.3092 14.0137 10.3418C13.929 10.3743 13.8411 10.3906 13.75 10.3906C13.5807 10.3906 13.4342 10.3288 13.3105 10.2051C13.1868 10.0814 13.125 9.9349 13.125 9.76562C13.125 9.6875 13.138 9.61589 13.1641 9.55078C13.1901 9.48568 13.2292 9.42057 13.2812 9.35547V9.35547C13.4245 9.19922 13.5384 9.01367 13.623 8.79883C13.7077 8.58398 13.75 8.35938 13.75 8.125C13.75 7.89062 13.7077 7.66602 13.623 7.45117C13.5384 7.23633 13.4245 7.04427 13.2812 6.875V6.89453C13.2292 6.82943 13.1901 6.76432 13.1641 6.69922C13.138 6.63411 13.125 6.5625 13.125 6.48438C13.125 6.3151 13.1868 6.16862 13.3105 6.04492C13.4342 5.92122 13.5807 5.85938 13.75 5.85938C13.8411 5.85938 13.929 5.87565 14.0137 5.9082C14.0983 5.94076 14.1667 5.98958 14.2188 6.05469V6.05469V6.05469V6.05469M18.125 8.125V8.125V8.125C18.125 8.93229 17.9818 9.69076 17.6953 10.4004C17.4089 11.11 17.0182 11.7448 16.5234 12.3047L16.543 12.2852C16.4779 12.3503 16.4062 12.4023 16.3281 12.4414C16.25 12.4805 16.1654 12.5 16.0742 12.5C15.9049 12.5 15.7585 12.4382 15.6348 12.3145C15.5111 12.1908 15.4492 12.0443 15.4492 11.875C15.4492 11.7969 15.4622 11.722 15.4883 11.6504C15.5143 11.5788 15.5534 11.5169 15.6055 11.4648V11.4648C15.9961 11.0221 16.3053 10.5143 16.5332 9.94141C16.7611 9.36849 16.875 8.76302 16.875 8.125C16.875 7.48698 16.7611 6.88151 16.5332 6.30859C16.3053 5.73568 15.9961 5.22786 15.6055 4.78516V4.78516C15.5534 4.73307 15.5111 4.67122 15.4785 4.59961C15.446 4.52799 15.4297 4.45312 15.4297 4.375C15.4297 4.19271 15.4915 4.04297 15.6152 3.92578C15.7389 3.80859 15.8854 3.75 16.0547 3.75C16.1589 3.75 16.25 3.76953 16.3281 3.80859C16.4062 3.84766 16.4714 3.89974 16.5234 3.96484H16.543C17.0247 4.51172 17.4089 5.13997 17.6953 5.84961C17.9818 6.55924 18.125 7.31771 18.125 8.125V8.125V8.125V8.125V8.125" fill="#5F6368"/>
</svg>
