<svg preserveAspectRatio="none" overflow="visible" style="display: block;" width="22" height="20.0001" viewBox="0 0 22 20.0001" fill="none" xmlns="http://www.w3.org/2000/svg">
<g id="Group 1448">
<path id="Vector (Stroke)" d="M19.9997 2.99967C19.9997 2.44819 19.5515 1.99929 19 1.99929H3.00003C2.44848 1.99929 1.99953 2.44819 1.99953 2.99967V12.9983C1.99953 13.5498 2.44848 13.998 3.00003 13.998H19C19.5515 13.998 19.9997 13.5498 19.9997 12.9983V2.99967ZM22 12.9983C22 14.6543 20.6561 15.998 19 15.998H3.00003C1.3439 15.998 0 14.6543 0 12.9983V2.99967C0 1.34374 1.3439 0 3.00003 0H19C20.6561 0 22 1.34374 22 2.99967V12.9983Z" fill="#FD022C"/>
<path id="Vector (Stroke)_2" d="M15.005 17.9964C15.5572 17.9965 16.0047 18.4439 16.0047 18.996C16.0047 19.5482 15.5572 19.9955 15.005 19.9957H7.00465C6.45236 19.9957 6.00488 19.5482 6.00488 18.996C6.00488 18.4438 6.45236 17.9964 7.00465 17.9964H15.005Z" fill="#FD022C"/>
<path id="Vector (Stroke)_3" d="M10.001 18.9997V15.0004C10.001 14.4482 10.4485 14.0008 11.0007 14.0008C11.553 14.0008 12.0005 14.4482 12.0005 15.0004V18.9997C12.0005 19.5519 11.553 20.0001 11.0007 20.0001C10.4485 20.0001 10.001 19.5519 10.001 18.9997Z" fill="#FD022C"/>
</g>
</svg>
