<svg preserveAspectRatio="none" overflow="visible" style="display: block;" width="32" height="32" viewBox="0 0 32 32" fill="none" xmlns="http://www.w3.org/2000/svg">
<g id="Security">
<g id="Icon">
<path d="M28.3268 30.1326L24.1687 25.9745H5.00203V23.3858C5.00203 22.7367 5.19103 22.1293 5.56904 21.5638C5.94705 20.9983 6.4556 20.5593 7.0947 20.2468C8.47569 19.5836 9.85618 19.0785 11.2362 18.7318C12.6162 18.385 13.9956 18.1905 15.3746 18.1481C15.5359 18.1481 15.7022 18.1481 15.8736 18.1481C16.045 18.1481 16.2113 18.1582 16.3726 18.1784L1.44873 3.25452L2.57067 2.13258L29.4487 29.0106L28.3268 30.1326V30.1326M6.57456 24.4019H22.5961L18.0298 19.8356C17.675 19.7953 17.3383 19.76 17.0197 19.7297C16.7012 19.6995 16.3645 19.6844 16.0097 19.6844C14.6025 19.6844 13.2134 19.8512 11.8425 20.1849C10.4716 20.5185 9.13898 20.9988 7.84467 21.6258C7.44751 21.8375 7.13653 22.0966 6.91174 22.403C6.68695 22.7095 6.57456 23.0371 6.57456 23.3858V24.4019V24.4019M25.59 20.5795C25.7654 20.6642 25.9045 20.7927 26.0073 20.9651C26.1101 21.1374 26.1646 21.3234 26.1706 21.523V21.523L24.9549 20.3073C25.0638 20.3497 25.1712 20.392 25.277 20.4343C25.3828 20.4767 25.4872 20.5251 25.59 20.5795V20.5795M18.6528 13.7935L17.5127 12.6534C18.0147 12.3772 18.4138 11.9906 18.7102 11.4936C19.0066 10.9967 19.1547 10.4609 19.1547 9.88633C19.1547 9.02145 18.8468 8.28105 18.2309 7.66515C17.615 7.04924 16.8746 6.74129 16.0097 6.74129C15.4351 6.74129 14.8994 6.88947 14.4024 7.18583C13.9054 7.48219 13.5189 7.88137 13.2427 8.38337L12.1026 7.24328C12.5441 6.57395 13.1076 6.06086 13.793 5.70402C14.4785 5.34718 15.2174 5.16876 16.0097 5.16876C17.3161 5.16876 18.429 5.62842 19.3483 6.54774C20.2676 7.46706 20.7273 8.57993 20.7273 9.88633C20.7273 10.6786 20.5489 11.4175 20.192 12.103C19.8352 12.7885 19.3221 13.3519 18.6528 13.7935V13.7935M22.5961 24.4019H6.57456V24.4019C6.57456 24.4019 6.68695 24.4019 6.91174 24.4019C7.13653 24.4019 7.44751 24.4019 7.84467 24.4019C8.49183 24.4019 9.15511 24.4019 9.83452 24.4019C10.5139 24.4019 11.2301 24.4019 11.9831 24.4019C12.7361 24.4019 13.5415 24.4019 14.3994 24.4019C15.2572 24.4019 16.175 24.4019 17.1528 24.4019C17.4956 24.4019 17.8232 24.4019 18.1356 24.4019C18.4481 24.4019 18.7757 24.4019 19.1185 24.4019H22.5961V24.4019M15.3777 10.5184V10.5184V10.5184V10.5184V10.5184V10.5184V10.5184V10.5184V10.5184" fill="#F22F38"/>
<path d="M28.3268 30.1326L24.1687 25.9745H5.00203V23.3858C5.00203 22.7367 5.19103 22.1293 5.56904 21.5638C5.94705 20.9983 6.4556 20.5593 7.0947 20.2468C8.47569 19.5836 9.85618 19.0785 11.2362 18.7318C12.6162 18.385 13.9956 18.1905 15.3746 18.1481C15.5359 18.1481 15.7022 18.1481 15.8736 18.1481C16.045 18.1481 16.2113 18.1582 16.3726 18.1784L1.44873 3.25452L2.57067 2.13258L29.4487 29.0106L28.3268 30.1326V30.1326M6.57456 24.4019H22.5961L18.0298 19.8356C17.675 19.7953 17.3383 19.76 17.0197 19.7297C16.7012 19.6995 16.3645 19.6844 16.0097 19.6844C14.6025 19.6844 13.2134 19.8512 11.8425 20.1849C10.4716 20.5185 9.13898 20.9988 7.84467 21.6258C7.44751 21.8375 7.13653 22.0966 6.91174 22.403C6.68695 22.7095 6.57456 23.0371 6.57456 23.3858V24.4019V24.4019M25.59 20.5795C25.7654 20.6642 25.9045 20.7927 26.0073 20.9651C26.1101 21.1374 26.1646 21.3234 26.1706 21.523V21.523L24.9549 20.3073C25.0638 20.3497 25.1712 20.392 25.277 20.4343C25.3828 20.4767 25.4872 20.5251 25.59 20.5795V20.5795M18.6528 13.7935L17.5127 12.6534C18.0147 12.3772 18.4138 11.9906 18.7102 11.4936C19.0066 10.9967 19.1547 10.4609 19.1547 9.88633C19.1547 9.02145 18.8468 8.28105 18.2309 7.66515C17.615 7.04924 16.8746 6.74129 16.0097 6.74129C15.4351 6.74129 14.8994 6.88947 14.4024 7.18583C13.9054 7.48219 13.5189 7.88137 13.2427 8.38337L12.1026 7.24328C12.5441 6.57395 13.1076 6.06086 13.793 5.70402C14.4785 5.34718 15.2174 5.16876 16.0097 5.16876C17.3161 5.16876 18.429 5.62842 19.3483 6.54774C20.2676 7.46706 20.7273 8.57993 20.7273 9.88633C20.7273 10.6786 20.5489 11.4175 20.192 12.103C19.8352 12.7885 19.3221 13.3519 18.6528 13.7935V13.7935M22.5961 24.4019H6.57456V24.4019C6.57456 24.4019 6.68695 24.4019 6.91174 24.4019C7.13653 24.4019 7.44751 24.4019 7.84467 24.4019C8.49183 24.4019 9.15511 24.4019 9.83452 24.4019C10.5139 24.4019 11.2301 24.4019 11.9831 24.4019C12.7361 24.4019 13.5415 24.4019 14.3994 24.4019C15.2572 24.4019 16.175 24.4019 17.1528 24.4019C17.4956 24.4019 17.8232 24.4019 18.1356 24.4019C18.4481 24.4019 18.7757 24.4019 19.1185 24.4019H22.5961V24.4019M15.3777 10.5184V10.5184V10.5184V10.5184V10.5184V10.5184V10.5184V10.5184V10.5184" stroke="#F22F38" stroke-linejoin="bevel"/>
</g>
</g>
</svg>
